<svg xmlns="http://www.w3.org/2000/svg" viewBox="0 0 980 980" fill="none" shape-rendering="auto" width="256" height="256"><metadata xmlns:rdf="http://www.w3.org/1999/02/22-rdf-syntax-ns#" xmlns:xsi="http://www.w3.org/2001/XMLSchema-instance" xmlns:dc="http://purl.org/dc/elements/1.1/" xmlns:dcterms="http://purl.org/dc/terms/"><rdf:RDF><rdf:Description><dc:title>Lorelei</dc:title><dc:creator>Lisa Wischofsky</dc:creator><dc:source xsi:type="dcterms:URI">https://www.figma.com/community/file/1198749693280469639</dc:source><dcterms:license xsi:type="dcterms:URI">https://creativecommons.org/publicdomain/zero/1.0/</dcterms:license><dc:rights>Remix of „Lorelei” (https://www.figma.com/community/file/1198749693280469639) by „Lisa Wischofsky”, licensed under „CC0 1.0” (https://creativecommons.org/publicdomain/zero/1.0/)</dc:rights></rdf:Description></rdf:RDF></metadata><mask id="viewboxMask"><rect width="980" height="980" rx="490" ry="490" x="0" y="0" fill="#fff" /></mask><g mask="url(#viewboxMask)"><rect fill="#60a5fa" width="980" height="980" x="0" y="0" /><g transform="translate(10 -60)"><path d="M441 200c18 0 35 3 52 8 8 2 15 4 22 9 13-12 32-14 48-10 10 2 18 7 25 13 8 7 18 13 22 23 11-1 23-1 33 3 9 5 17 13 24 21 5 8 9 17 8 27l21 3h11c2 1 4 3 4 6 0 6-1 13-3 19-5 14-14 25-26 34-16 12-36 18-56 20-25 3-51 2-75-5l12 20c2 2 3 5 0 7-1 2-3 2-5 2l-30-6c-23-8-45-18-67-30-12-7-23-12-33-22 0 6-1 12-3 17-1 3-4 5-6 3-4-3-9-5-12-9a98 98 0 0 0-44-22c3 3 6 5 7 9l-13 10-20 11c-7 4-13 8-19 14l-7 8c-1 5-2 11-1 16 1 12 5 22 9 33 0 4 2 7-1 10l-7 10c-4 5-7 10-8 16-3 13 0 28 3 41l10 36 3 9c7 4 16 9 19 17-9 0-16-3-24-6 9 6 19 13 25 22 3 3 5 6 6 10l-13-5c-9-4-16-10-24-15l-7-2-29-5-17-5-8-9c-5-4-8-9-10-15-4-9-9-19-10-30l-4-23a332 332 0 0 1 9-104c3-13 9-24 14-36 7-16 17-31 30-44l15-10c0-9 4-16 10-22 9-10 21-19 34-24 12-5 25-9 39-9 4-12 12-22 22-28 14-9 29-11 45-11Z" fill="#000000"/><path d="M313 585c5 1 9 5 12 8 4 3 8 8 10 13-5-2-10-6-14-9-4-2-8-4-10-8-2-2 0-4 2-4Z" fill="#000000"/><path d="M495 234c28 1 56 6 84 15a201 201 0 0 1 100 65c19 25 31 55 35 86a361 361 0 0 1 2 101l-5 34-4 20c-1 2-1 2-3 2-2-4-2-8-2-12-1-15 1-29 2-44 1-24 3-48 1-72l-6-45c-7-28-20-54-40-75-18-18-40-33-63-43-22-9-44-15-67-19-18-3-36-4-54-4a277 277 0 0 0-128 29c-13 9-25 20-35 32a276 276 0 0 0-55 139c-1 24 0 47 8 70l7 15 12 1 1 3c-3 2-7 2-11 3-10 2-20 6-29 12-7 5-14 11-18 19-5 10-3 22-1 33 5 19 17 37 33 49 11 9 25 14 39 16 10 2 20 0 30-1 5 4 8 12 11 17l18 27a136 136 0 0 0 66 50c22 9 45 14 68 19l41 8 17 5v4h-12a535 535 0 0 1-67-8 255 255 0 0 1-84-33c-11-7-21-16-29-27a214 214 0 0 1-16 123c-15 27-40 48-70 57-3 1-7 2-10 1-2 0-2-1-2-3 1-3 4-5 6-6 12-8 26-14 38-23 13-11 24-23 31-38 6-15 10-32 12-49 2-13 3-26 2-40l-4-38-18-36-19 4a88 88 0 0 1-75-38 93 93 0 0 1-20-58c0-9 3-18 8-25s12-13 19-17c5-4 12-6 18-8l-9-24c-5-22-5-45-2-67a292 292 0 0 1 63-149c9-10 18-19 29-26 7-4 14-5 20-9 43-19 90-25 137-22Z" fill="#000"/><path d="M475 243a276 276 0 0 1 121 23c23 10 45 25 63 43 20 21 33 47 40 75l6 45c2 24 0 48-1 72-1 15-3 29-2 44 0 4 0 8 2 12l-1 20c-2 5-2 10-2 16-2 24-2 49-6 74-1 12-3 25-8 36-3 9-8 17-15 24-12 13-27 24-43 33-19 11-39 16-58 24-5 2-10 4-13 8 8 1 15 0 23-2-5 12-6 24-6 36 0 5-1 11 1 16 3 5 8 9 13 12l35 13c22 8 43 18 65 27 2 4 5 7 6 12 6 11 7 23 3 35-5 13-15 24-27 31-16 11-36 19-55 24a494 494 0 0 1-235-7c-20-7-40-14-58-24-14-8-29-18-40-31-6-8-11-19-12-29a122 122 0 0 0 86-107c4-24 4-49 0-73 8 11 18 20 29 27l27 14a331 331 0 0 0 124 27h12v-4l-17-5-41-8c-23-5-46-10-68-19-13-6-27-13-39-21-10-9-19-18-27-29l-18-27c-3-5-6-13-11-17-10 1-20 3-30 1-14-2-28-7-39-16a94 94 0 0 1-33-49c-2-11-4-23 1-33 4-8 11-14 18-19 9-6 19-10 29-12 4-1 8-1 11-3l-1-3-12-1-7-15c-8-23-9-46-7-70a276 276 0 0 1 54-139c10-12 22-23 35-32a277 277 0 0 1 128-30Z" fill="#ffffff"/><path d="M260 571c4 0 7 0 11 2 5 1 11 4 14 8 2 3 2 7 0 10-5 6-12 10-16 16 6 4 14 6 21 9 4 1 8 3 11 6l1 3-8-2-24-7c-4-1-8-3-9-7-1-3 1-7 3-10l15-13c-4-7-15-8-19-15ZM703 577l2 3 2 16a483 483 0 0 1-2 89c-2 11-5 23-10 33a198 198 0 0 1-106 71c-1 14-3 31-2 47l5 5c8 6 18 9 27 12a451 451 0 0 1 68 28c7 4 13 9 18 15-5 1-10-1-16-2-22-9-43-19-65-27l-35-13c-5-3-10-7-13-12-2-5-1-11-1-16 0-12 1-24 6-36-8 2-15 3-23 2 3-4 8-6 13-8 19-8 39-13 58-24 16-9 31-20 43-33 7-7 12-15 15-24 5-11 7-24 8-36 4-25 4-50 6-74 0-6 0-11 2-16Z" fill="#000"/><path d="M669 473c8-1 16 1 22 6 3 3 6 7 6 11 1 5-4 10-9 10-4-1-6-3-8-6l-10-7c9 16 4 38-10 49-7 6-18 8-25 1-6-5-8-12-8-20-2 5-5 9-6 14-1 2-1 4-3 4-2-5-1-11 1-17 6-16 17-30 32-38 5-4 11-6 18-7ZM457 484c27 1 53 18 64 42 2 2 4 6 1 9-3 0-5-4-7-6-4-8-10-14-17-19 2 11 2 21-4 31-5 8-16 13-25 12-7-2-14-5-19-11-6-6-8-16-8-24 0-7 3-13 6-18-14 3-28 9-39 18-3 1-5 3-8 3-4-1-6-4-6-8 0-3 2-6 4-8 8-6 16-12 26-16s21-6 32-5Z" fill="#000000"/><path d="m688 421 1 2-13 14c-7 6-14 10-22 14l-26 19-13 6-9 1-10 20-1 1-1-1c-2-5 0-13 1-19 2-6 2-12 8-16 3-3 7-3 10-5l31-20c8-6 16-11 25-13l19-3ZM371 430c9 0 19 0 28 2 9 1 17 4 26 6 5 2 10 1 15 2 8 0 15-1 23 2 8 2 16 3 23 6 12 3 24 5 35 11 0-2 0-4 2-6 2-1 5 0 6 2 5 7 8 17 11 25 1 4-2 9-6 9-5 1-8-4-12-6-5-2-7-7-12-9l-30-9-19-5-15-3-15-4-24-9-30-9-6-5Z" fill="#000000"/><path d="m591 528 2 2 7 22c4 8 10 15 15 23 4 6 6 13 5 20-1 6-4 12-9 16-7 7-16 12-25 16-5 3-11 4-17 2l5-4c11-9 25-14 36-24 2-2 4-6 4-9-1-7-5-11-8-16-5-9-10-16-13-25-2-7-4-16-2-23Z" fill="#000000"/><path fill-rule="evenodd" clip-rule="evenodd" d="m463 648-14-4h-1c-2-1-5-1-6 1-1 1 0 3 1 3l6 3 2 1a257 257 0 0 0 73 24c0 7 2 14 7 20 5 7 12 13 21 16 10 4 21 3 31-1s18-12 22-22c2-4 2-9 2-13l18-6v-1l2-2a1497 1497 0 0 0-29 0 324 324 0 0 1-86-4l-39-11-2-1-8-3Zm69 29c1 10 9 18 18 23 12 9 32 5 40-8 3-4 4-9 5-14v-1l-26 2 1 1c0 3 1 5-1 8s-6 3-7 0c-2-3-2-6-1-9a1036 1036 0 0 0-25-2h-4Z" fill="#000000"/><path d="M449 200a185 185 0 0 1 66 17c12-11 28-13 43-11 11 2 21 7 29 13 8 7 18 14 23 24 10-1 22-1 32 3 8 4 14 10 20 17 5 5 10 12 12 19l1 12 17 3 12-1c4 0 6 4 6 7 1 6-1 12-2 18-5 15-15 27-27 36-16 11-36 17-55 19-25 3-51 2-76-5l10 15c1 3 4 5 4 8 1 3-2 6-5 6-8 0-16-2-23-4-13-3-25-8-38-13l-52-27c-7-4-13-8-19-14 0 6 0 11-2 16-1 3-3 6-6 4l-15-10a97 97 0 0 0-41-21l7 9c-6 7-14 10-22 15l-26 16c-4 3-9 7-11 12s-2 12-1 17c1 11 4 21 8 32 1 3 2 7 0 10l-8 10c-3 5-6 9-8 15v22c2 15 6 30 10 45l7 20c7 4 15 8 19 16-9 1-16-2-24-5l20 16c4 5 9 10 11 16-12-4-22-10-32-17-7-4-15-8-18-16l2-3c2-2 4-1 6-2-5-2-8-6-12-9-9-5-18-11-28-15-8-3-17-6-25-11-3-2-6-4-8-8-4-8-6-16-7-24a324 324 0 0 1 10-112c3-11 8-21 12-31 8-17 18-33 31-46l15-9c-1-9 4-16 10-23 9-10 21-18 33-23 13-5 26-9 39-9 2-7 6-12 10-17 7-9 18-15 29-18 12-4 25-4 37-4ZM311 585c3 0 6 2 8 3 6 5 13 11 16 18l-15-9-10-7c-1-2 0-4 1-5Z" fill="#000000"/></g><g transform="translate(10 -60)"></g></g></svg>