<svg xmlns="http://www.w3.org/2000/svg" viewBox="0 0 980 980" fill="none" shape-rendering="auto" width="256" height="256"><metadata xmlns:rdf="http://www.w3.org/1999/02/22-rdf-syntax-ns#" xmlns:xsi="http://www.w3.org/2001/XMLSchema-instance" xmlns:dc="http://purl.org/dc/elements/1.1/" xmlns:dcterms="http://purl.org/dc/terms/"><rdf:RDF><rdf:Description><dc:title>Lorelei</dc:title><dc:creator>Lisa Wischofsky</dc:creator><dc:source xsi:type="dcterms:URI">https://www.figma.com/community/file/1198749693280469639</dc:source><dcterms:license xsi:type="dcterms:URI">https://creativecommons.org/publicdomain/zero/1.0/</dcterms:license><dc:rights>Remix of „Lorelei” (https://www.figma.com/community/file/1198749693280469639) by „Lisa Wischofsky”, licensed under „CC0 1.0” (https://creativecommons.org/publicdomain/zero/1.0/)</dc:rights></rdf:Description></rdf:RDF></metadata><mask id="viewboxMask"><rect width="980" height="980" rx="490" ry="490" x="0" y="0" fill="#fff" /></mask><g mask="url(#viewboxMask)"><rect fill="#22d3ee" width="980" height="980" x="0" y="0" /><g transform="translate(10 -60)"><path fill-rule="evenodd" clip-rule="evenodd" d="M412 193c18-2 36 0 54 3h1c10 2 21 4 30 8 11-5 23-8 35-8a167 167 0 0 1 78 19 134 134 0 0 1 36 30v1l6 2 3 1c8 2 16 6 23 10 18 12 34 28 50 44 13 15 26 31 32 51 6 21 4 43 0 64l16 17a192 192 0 0 1 39 50c8 16 11 34 11 51s-5 34-14 49l-11 15-17 25c-6 14-5 28-3 42l1 9 1 13a533 533 0 0 0 17 41c6 18 8 36 1 54-6 13-16 22-27 30a323 323 0 0 1-48 25c-17 9-33 21-48 34a151 151 0 0 1-17 27l-5 4c-7 12-15 22-27 28-16 8-32 8-49 9-11 0-21-1-32-4-16-3-32-11-48-18-14-6-28-13-42-17-11-3-22-5-33-1-7 2-13 7-18 12l-9 7c-7 5-14 8-22 9-15 1-31-2-46-6-13-3-26-6-38-13l-9-5-11-7c-4-1-9 0-13 1l-21 9-11 5c-12 5-24 9-37 12a59 59 0 0 1-65-38c-4-11-4-22-1-33 1-9 5-17 9-26 4-8 8-16 10-25 1-6 0-13-3-19l-13-12c-5-4-10-7-14-12-6-10-8-21-7-32 0-17 4-35 12-51 5-10 13-17 20-26a167 167 0 0 0 23-31c-1-7-3-14-6-20a507 507 0 0 0-25-51c-7-16-7-34-4-52 3-15 8-30 15-43a443 443 0 0 1 44-71l16-22 2-3 4-8a227 227 0 0 1 110-129c29-16 62-26 95-28Zm310 127c9 10 18 22 22 36 5 14 5 29 4 44l-2-3a124 124 0 0 1-13-40c-2-13-6-25-11-37ZM145 477h-1c-3 13-6 26-6 40 0 9 3 19 7 27l10 20 15 30c2-19-2-38-11-55l-5-8c-3-7-7-14-9-22-3-10-2-22 0-32Zm639 247c3 8 6 16 7 24 2 11 1 22-4 31-4 11-14 18-23 24l-19 11a319 319 0 0 0-58 39c3-7 6-15 11-22s11-13 18-18l13-8 12-7c10-7 19-16 26-27 5-7 10-15 13-23l4-24Zm-639 46-4-1c6 6 11 13 13 22 2 11-1 21-5 32l-5 11c-5 10-9 19-9 30-3 24 19 48 43 48-10-2-20-7-27-14-7-8-10-19-10-30 2-12 7-22 12-33v-2l4-6c4-10 9-20 10-30 1-7 0-14-5-19-3-3-7-4-11-6l-6-2Z" fill="#000000"/><path d="M528 244c41 6 80 22 113 47 28 21 50 49 65 81 13 28 20 60 19 91-1 15-3 30-8 44h-2l1-21c1-30-2-59-13-87-10-30-28-57-50-79-42-40-98-62-156-63a243 243 0 0 0-196 94 207 207 0 0 0-40 139l2 25c8 0 19 0 25 7l-3 3-17 1c-12 1-24 5-33 13a64 64 0 0 0-17 39c-5 32 12 65 39 83 16 10 36 15 55 9 4-2 9-5 14-3 3 1 4 4 5 7a251 251 0 0 0 90 100c8 7 18 13 28 18 18 8 38 14 57 19l32 8c5 1 9 1 13 3l-4 1c-25 2-48-3-72-10-12-3-23-7-34-12a306 306 0 0 1-84-63l2 28c1 17 0 35-6 52-4 12-11 24-19 34-10 10-22 19-34 26-10 7-21 14-32 18l-16 5 9-9 31-20 22-17a95 95 0 0 0 32-56c2-14 2-28 2-43v-27c-10-14-22-29-27-46-17 8-38 7-55-1-17-7-32-19-43-33-12-17-19-36-21-56s2-40 15-56c9-10 22-18 35-21-4-14-6-29-6-44a234 234 0 0 1 83-173 249 249 0 0 1 199-55Z" fill="#000"/><path d="M653 320c22 22 40 49 50 79 11 28 14 57 13 87l-1 21-5 15-2 13 2 56c0 21 1 42-1 63l-3 47c-2 16-7 31-14 45-11 18-26 33-44 44-13 8-27 12-41 16l-38 11-17 3c0 1 1 2 3 2 8 5 17 5 26 4-3 7-4 14-2 22 3 7 11 11 17 14 12 6 24 7 36 9 7 6 14 14 16 24 2 8 2 16-2 23-5 10-14 18-24 23-13 8-27 14-42 18a468 468 0 0 1-222-1c-17-4-33-9-48-17-12-6-23-13-32-22-5-7-9-14-10-23 11-4 22-11 32-18 12-7 24-16 34-26 8-10 15-22 19-34 6-17 7-35 6-52l-2-28 22 23c19 15 40 30 62 40 11 5 22 9 34 12 24 7 47 12 72 10l4-1c-4-2-8-2-13-3l-32-8c-19-5-39-11-57-19l-29-17c-11-9-23-17-33-27a251 251 0 0 1-56-74c-1-3-2-6-5-7-5-2-10 1-14 3-19 6-39 1-55-9a88 88 0 0 1-39-83c1-14 7-28 17-39 9-8 21-12 33-13l17-1 3-3c-6-7-17-7-25-7l-2-25a207 207 0 0 1 40-139 243 243 0 0 1 196-94c58 1 114 23 156 63Z" fill="#ffffff"/><path d="M710 522c3 0 3 4 4 6 3 11 4 23 5 34l2 21c1 22 2 43 1 65-1 21-1 44-5 65a136 136 0 0 1-80 99c-15 7-31 11-48 13v15c1 3 3 4 5 6 12 6 23 8 36 11 12 3 24 5 36 11-3 3-7 4-11 4-7 1-15-1-23-1-12-2-24-3-36-9-6-3-14-7-17-14-2-8-1-15 2-22-9 1-18 1-26-4-2 0-3-1-3-2l17-3 38-11c14-4 28-8 41-16 18-11 33-26 44-44 7-14 12-29 14-45l3-47c2-21 1-42 1-63l-2-56 2-13ZM252 549c8 0 17 1 23 7 5 4 10 9 12 15 1 3 0 6-2 8l-13 8c-7 6-7 19 0 25 6 5 14 8 21 11 2 0 5 1 6 3-1 2-3 3-5 3-10 0-20-3-28-9-5-3-8-8-9-13-2-8-2-17 4-24 4-6 11-9 18-12-4-5-7-11-14-13-7-3-15-3-22-5l9-4Z" fill="#000"/><path d="M473 484c4-2 10-1 13 3 5 4 8 11 8 17 2 10 0 21-4 30-3 6-6 12-13 14-6 2-14-1-17-7-5-6-6-15-6-22 1-8 2-16 6-24 3-5 7-9 13-11ZM643 491c4-2 9-2 13 2 5 4 7 12 7 18 1 9-1 18-5 25-2 5-6 8-11 10-5 1-11-1-14-5-3-3-5-7-6-12-1-9 1-18 4-26 3-5 6-10 12-12Z" fill="#000000"/><path d="M533 358c6 2 9 8 10 14 0 8-3 16-7 22-3 3-7 4-10 1-4-3-2-10-2-15l-13 10c-6 4-13 7-20 9-9 4-19 5-30 8l-25 8c-8 3-15 8-22 12l-25 17c-5 3-8 7-11 12-2-4-1-8 1-11a401 401 0 0 1 35-29c16-13 36-21 55-28l28-11c8-4 14-11 21-16 5-2 10-4 15-3ZM626 376l6 7c17 7 33 7 49 16 4 2 7 6 9 10s1 8-2 12l-16-6c-12-6-24-7-36-11-7-3-14-4-19-10-4 8-4 17-8 26-1 1-1 4-4 3l-1-8 2-11c1-8 4-16 7-23 2-6 8-8 13-5Z" fill="#000000"/><path d="M603 613v1c-4 8-11 15-20 18-3 1-7 1-9-1v-4c7-5 16-9 24-12l5-2Z" fill="#000000"/><path d="M465 666c10-1 20 1 30 2 16 1 31 5 47 6h25l23-2c11-2 22-4 33-3 6 0 12 2 16 6 4 3 7 9 6 14-1 7-6 13-11 18l-24 13c-10 3-19 6-29 4-4-1-6-3-8-6 8-4 16-3 24-5 12-3 24-8 33-16 3-2 6-6 7-10s-2-6-5-8c-6-2-13-2-19-1-16 2-32 6-48 7l-28-1c-14-1-28-5-42-7l-27-2c-2 0-4-1-6 1-1 3 0 8 2 11 5 6 12 9 19 13l19 8c3 1 7 2 8 5 2 7 1 14 4 21 1 2 3 4 6 5 6-5 4-11 8-17 2-4 4-8 9-8 9-1 18 1 27 2 2 1 4 1 5 3 0 3-3 3-5 3-8 1-18-2-26-2-3-1-3 2-5 3-3 6-2 12-6 16-1 3-5 5-8 5-4-1-8-4-10-7-4-6-4-14-5-21-7-1-14-2-20-5l-17-8c-6-4-10-10-12-16v-14c2-4 6-6 10-7Z" fill="#000000"/><path fill-rule="evenodd" clip-rule="evenodd" d="M468 196a218 218 0 0 0-234 122 323 323 0 0 0-25 186l4 19c1 3 3 6 5 6l4 1h1c5 6 12 10 20 12 12 4 26 4 38 2-3 16 1 34 7 49 5 12 13 25 23 34a67 67 0 0 0 51 14c5-1 9-4 13-8v-1l2-5h-3c-3 0-5 0-8-2-11-6-19-17-25-28-10-20-15-43-15-65 13-6 24-16 33-27l7-5 4-2c9-6 17-14 25-22 17-20 30-43 39-67a443 443 0 0 0 16-63c4-20 8-41 17-60a185 185 0 0 1 34 1l12 1c3-1 4-4 4-7 0-5-3-10-6-14a272 272 0 0 1 45 26c2 2 5 3 7 2a172 172 0 0 0 26-13l6-4 14-7c-3 5-7 12-7 18 0 3 3 5 6 5 11 1 21-1 32-4l4-1c4-1 8 2 11 4 9 9 15 22 16 34a118 118 0 0 1 0 35l-1 11-1 15-2 37c2 16 8 32 20 43 9 9 22 12 34 9 6-2 12-6 16-10 5-4 7-9 7-16l-11 4-14 4v-8c4-3 8-7 10-11l-2-9-1-7-3-23-3-25-1-7c-2-14-4-27-9-41a162 162 0 0 0-42-68c-6-4-11-7-18-9a136 136 0 0 0-39-36c-17-8-34-14-52-17-15-2-32-3-46 1l-16 5c-9-4-19-6-29-8Zm-20 115c3-8 5-17 10-25-14 1-27 3-41 6-7 13-14 27-18 41a232 232 0 0 0-10 71c-2 21-3 43-9 63 19-20 34-45 42-71 6-15 10-30 14-46 4-13 7-26 12-38v-1Z" fill="#000000"/></g><g transform="translate(10 -60)"></g></g></svg>